PathFileType	4	(X/Y/Z)	OpenSim_Sub02_EMGBaseline_Accel.trc
DataRate	CameraRate	NumFrames	NumMarkers	Units	OrigDataRate	OrigDataStartFrame	OrigNumFrames
100	100	31	8	m	100	5887	6727
Frame#	Time	torso_imu_offset_imu	pelvis_imu_offset_imu	tibia_r_imu_offset_imu	femur_r_imu_offset_imu	tibia_l_imu_offset_imu	femur_l_imu_offset_imu	toes_r_imu_offset_imu	toes_l_imu_offset_imu
				X1	Y1	Z1	X2	Y2	Z2	X3	Y3	Z3	X4	Y4	Z4	X5	Y5	Z5	X6	Y6	Z6	X7	Y7	Z7	X8		Y8	Z8	

5887	58.86000000	10.42406638	0.41896247	8.87992714	10.15798509	0.03045549	3.65848281	12.26271032	1.15923489	3.04289069	11.55907024	-0.00177091	0.25973722	8.62655375	0.56342812	1.96270407	8.49892973	1.21847630	-3.18725079	4.81154961	-1.42811222	9.85971239	4.86833002	-1.11279595	12.34232788
5888	58.87000000	9.40126474	0.51185155	8.81910236	9.53043758	1.92739244	3.79581899	12.01726508	1.02754795	3.44912791	11.85780747	0.74035246	0.73025623	7.60599160	-4.45704050	-0.95408751	7.69616669	-1.40917485	-3.36830274	5.10860993	-1.13798210	9.01303941	3.23912305	2.41592463	11.79327963
5889	58.88000000	8.59444440	0.61153570	8.46560066	9.16790121	3.67663388	3.95907471	11.64328486	1.27498220	2.89110641	11.68215437	1.18817894	0.79913136	6.67686909	-8.44628184	-4.01180702	6.91006225	-3.85473001	-2.79485824	4.67430742	-0.23234602	8.75626899	3.49340903	2.15870518	11.92630374
5890	58.89000000	7.88236727	0.78943115	8.01984649	8.87876194	4.88854630	4.36808766	11.17160324	1.83542101	1.89517071	10.94511694	1.67864026	0.69907847	5.78294992	-11.41623561	-5.92841188	6.17706618	-4.89010096	-1.80500304	5.45659250	-0.45812047	8.39468337	3.81190496	2.06833002	11.88418052
5891	58.90000000	7.19208753	1.06900193	7.67378236	8.53050353	5.44637579	4.80754177	10.80897631	2.42403025	2.12567600	10.14334049	2.37718525	0.73693115	6.11932210	-13.20043908	-6.80232894	6.43102479	-4.27580952	-0.91164324	7.52160545	-0.64990862	7.92626267	3.98367649	1.54046324	11.84667605
5892	58.91000000	6.51957712	1.28353412	7.36200430	7.94734270	5.21716940	4.98874500	10.55517916	3.23927059	2.71807804	9.76533449	2.91988111	0.98136143	7.66551244	-12.18982646	-6.95021048	7.58221477	-2.70356946	-0.88441802	8.59815656	-0.45565193	7.63166197	3.71598243	0.78589403	12.00867052
5893	58.92000000	5.91023662	1.41693721	7.04792130	7.26533117	4.18146972	5.04251973	10.17610481	4.61212949	2.67556084	9.63991518	3.24828580	1.19450301	9.35743702	-7.76572085	-5.76916813	8.39936825	-1.14762801	-1.54474792	10.58248441	-0.68840815	7.58033659	3.27451502	0.42128514	11.48933162
5894	58.93000000	5.47779179	1.39777827	6.76507938	6.85170425	2.60335558	5.04948072	9.55376136	6.22028506	2.93114772	9.69024853	3.28181532	1.53568167	10.47789435	-2.13013777	-3.46385576	8.29343922	-0.15805238	-2.38409556	14.92788951	0.64673329	8.45136079	3.29045673	1.08308767	11.36648101
5895	58.94000000	5.35447174	1.33150132	6.55147242	6.87076282	0.95107707	5.06678013	8.93064174	7.66800863	3.60973164	9.98230918	2.78553618	1.89231193	11.15938421	3.06871242	-1.22683299	7.60281549	0.00088552	-3.50795285	16.71922139	1.86263509	8.48760086	3.35050555	1.80010204	11.62265348
5896	58.95000000	5.70363715	1.20472156	6.42367371	7.32555336	-0.44773150	5.14216187	8.49540192	9.07186091	3.54389358	10.46137949	1.78591247	2.05321860	11.29782182	7.00400368	0.32509107	7.59228433	-0.44234056	-4.75336891	15.25257180	1.50115633	7.57489276	2.94034420	1.78543178	11.90662495
5897	58.96000000	6.61354655	1.06259317	6.49140914	8.01421400	-1.46062421	5.22212340	8.23453783	9.99338261	2.64298742	11.00757149	0.52400432	2.03760167	10.77820316	9.21107622	1.24427045	8.50589094	-0.49977902	-5.31400586	14.14462281	0.66857670	7.61609362	2.93243167	1.25980797	11.83981446
5898	58.97000000	7.80491351	1.01502612	6.61551512	8.80799403	-2.18086555	5.10744478	7.81198951	10.01163178	2.24248723	11.15244243	-0.37940187	2.06221298	10.12204743	9.64742420	1.68716961	9.33767030	0.13071765	-4.80976539	12.40956972	-0.35806164	8.40319266	3.21358062	0.82561397	11.83202894
5899	58.98000000	8.78270378	0.90674623	6.72582437	9.48858565	-2.73679608	4.88985809	6.96116140	9.63647816	2.44640865	10.68850204	-1.12677648	2.10733690	9.75515999	8.08826049	1.56419298	9.63359900	0.49405428	-3.67479071	10.25837581	-1.82853075	7.80838526	3.56859684	0.81437813	11.77454165
5900	58.99000000	9.32977787	0.70602109	6.94014564	9.70266301	-3.06216099	4.54444473	5.80451629	9.28080434	2.68290467	10.22108242	-1.74646223	2.07708078	9.72377525	5.22168761	0.58184323	9.66165744	-0.14645915	-2.43430465	2.48674141	-1.52965971	7.31705656	3.83676039	0.95277724	11.96354959
5901	59	9.38983562	0.62327342	7.07382032	9.39068982	-2.89163471	4.05640397	4.55595432	8.72087909	3.23226979	10.10999415	-2.25448399	2.13671986	9.77515576	1.97998857	-0.69198950	9.57340472	-0.82400057	-1.64918994	7.25670767	4.77843209	11.65426072	3.54099411	0.70590129	12.19244961
5902	59.01000000	9.12743292	0.60608247	7.06847445	9.11857059	-2.20971678	3.83296762	3.36029995	8.50816341	4.04613354	10.22171896	-2.65209282	2.39207779	9.82601544	-1.31532089	-1.86507508	9.20709542	-0.87767883	-1.76109583	16.20138572	4.97554697	16.45583951	3.69404367	0.73496422	11.80152783
5903	59.02000000	9.00096245	0.52396207	7.09486462	9.38838531	-1.34545567	3.83506942	2.13599590	9.04615163	4.06916293	10.52665826	-2.61029597	2.76258810	9.83960160	-3.96007901	-2.71183356	8.90152924	-0.85690237	-2.53224300	11.01282770	-4.68868857	14.01875721	3.86065371	1.30386359	11.82150606
5904	59.03000000	9.27991489	0.49245464	7.15992005	9.82243418	-0.36668518	3.75390644	0.95708933	9.26294605	3.54099361	11.04092089	-2.66590081	2.85707367	9.93865580	-5.34955831	-3.07928579	8.86389288	-0.94150694	-3.42718529	6.52273813	-9.34006940	9.88804977	3.93214488	1.40218268	11.85314367
5905	59.04000000	9.76965799	0.55520536	7.26149430	10.06191899	0.55172302	3.63778582	0.22978230	8.46744680	3.18000836	11.43666206	-2.85702940	2.74195783	10.15022159	-5.26910075	-3.26796989	8.83839362	-1.08937136	-4.05891408	3.95484416	-8.85716845	7.84828270	3.79691804	1.32422032	11.91365987
5906	59.05000000	10.02687151	0.58034328	7.41227076	10.04696500	1.19581159	3.50479015	0.24945611	6.92947600	3.13687793	11.46354750	-2.94644319	2.58568949	10.28299149	-4.00600980	-3.11618341	8.71890778	-1.29142398	-4.12407090	2.96448409	-8.22200330	6.06008706	3.50893396	1.29563591	11.86736499
5907	59.06000000	9.85687708	0.56112215	7.59747341	9.87816762	1.46885013	3.28877345	1.10380302	5.33007722	4.06663092	11.09681630	-2.96885532	2.32564720	10.30600635	-2.20205741	-2.38234058	8.69378238	-1.55207808	-3.78667696	1.88203159	-6.87375936	5.61914845	3.72302711	1.28395855	11.87686569
5908	59.07000000	9.40400955	0.46918311	7.74560296	9.71044426	1.31657552	3.09075742	2.44135706	4.48353600	4.99385690	10.42506518	-2.91985653	2.09581795	10.26779837	-0.31410205	-1.56828113	8.78574506	-1.65015043	-3.53162790	1.94829904	-4.62289263	5.84707763	3.75709398	1.29324940	11.63965315
5909	59.08000000	8.85573484	0.37136641	7.73942713	9.66795547	0.85433791	2.90628224	3.68645485	4.31405166	4.86345087	9.72584112	-2.88363492	1.99314699	10.15744743	1.31712948	-0.98938515	8.84808077	-1.59093256	-3.39046444	2.88833862	-2.48869837	6.59104390	3.71085359	1.31248547	11.72878486
5910	59.09000000	8.33967872	0.32652274	7.62700640	9.76653562	0.15503786	2.77098613	4.74394829	4.29690162	4.68455800	9.16903260	-2.84863692	1.94041195	9.83595731	2.17858913	-0.44743489	8.80647312	-1.15229144	-3.27434760	3.93414846	-1.90502602	7.50750426	3.33054416	1.28228672	12.02482843
5911	59.10000000	7.92593414	0.23325037	7.44242988	9.78656819	-0.67074108	2.65470724	5.69025272	3.86478738	5.18259627	8.79589861	-2.80736592	1.96793056	9.47057673	2.32406776	0.02672494	8.80026336	-0.40492755	-3.11983003	4.85837952	-2.43838579	8.35258343	3.28327189	1.19571129	11.65817730
5912	59.11000000	7.63781809	0.18730378	7.36235644	9.74952699	-1.36859217	2.58858230	6.29048720	2.77013113	5.19377792	8.38657935	-2.72123241	2.08079816	9.34274642	2.02814647	0.46582062	8.97804204	0.38150739	-2.91934366	5.08551083	-2.14340158	9.08109001	3.39383426	1.17111139	11.63735150
5913	59.12000000	7.48845563	0.14752690	7.24920797	9.62300773	-1.81969374	2.61488033	6.20600897	1.92357510	4.64584356	8.01506550	-2.57222046	2.09591678	9.42088148	1.30401813	0.64896534	9.26634258	0.91489661	-2.67697659	4.58941842	-0.53146241	9.27725690	3.58640581	1.12534816	11.74098584
5914	59.13000000	7.50233250	0.09324938	7.04082507	9.43321623	-2.02328223	2.60057227	5.86842093	1.86333671	4.49220933	7.82989639	-2.45239552	2.05573158	9.48955589	0.43529501	0.51820579	9.43044476	0.83370205	-2.35666087	3.96070223	1.46476782	9.06978802	3.64671776	0.95507497	11.80994138
5915	59.14000000	7.64070997	0.05914121	6.96033888	9.16690384	-1.92533509	2.63242048	5.75713069	2.00786906	4.73565648	7.72019144	-2.49713308	2.04482628	9.55959456	-0.41959841	0.40555413	9.48139865	0.55481194	-1.98513268	3.73662817	3.33480762	8.99128915	3.46704164	0.85092109	11.83233025
5916	59.15000000	7.77194147	0.03737629	6.94254827	8.90184539	-1.60077540	2.71234055	5.58070106	2.14573980	4.73372513	7.66851072	-2.58442290	1.95664582	9.65669411	-0.98606938	0.40658118	9.50663754	0.22505620	-1.74420166	3.91266635	4.65239445	9.17646063	3.83056881	0.96042080	11.79211600
5917	59.16000000	7.74675226	0.02942825	6.99401815	8.66738783	-1.20798142	2.71064031	5.30552681	2.38144297	4.08419439	7.55223643	-2.50791730	1.89944282	9.67454051	-1.15747470	0.62086639	9.47658696	-0.18722311	-1.71817955	4.59741291	4.92026570	9.43243621	4.17464789	0.80859522	11.57855138
